<svg width="125" height="125" viewBox="0 0 125 125" fill="none" xmlns="http://www.w3.org/2000/svg">
<circle cx="62.5" cy="62.5" r="58.5" stroke="#9B591C" stroke-width="8"/>
<path d="M105.5 90.5026C100.7 88.9026 76.1968 92.4143 76.0003 93.0026C75.5003 94.5 81.7182 99.9485 83.0003 99.5026C90.667 96.8359 107.572 91.1931 105.5 90.5026Z" fill="#9C5B1E"/>
<path d="M26.5 75C21.7 77 16.1667 76.5 14 76C22.4 75.2 27.8333 69.6667 29.5 67H28L32 59.5L35.5 67H34C34.8 69 38.6667 70.1667 40.5 70.5C51.7 66.5 77.1667 68.1667 88.5 69.5V63L89.5 62H87.5L89.5 59.5H87L89.5 57L91 55.5H87.5L91.5 51H89.5L94.5 41L99.5 51H97L101 55.5H98L101 59.5H98L100.5 62H98C96.8 67.2 106.5 73.8333 111.5 76.5C108.7 76.9 106 76.3333 105 76C74.5 63 32.5 72.5 26.5 75Z" fill="#9D5B1E"/>
<path d="M85.4715 85.2312C86 86 76 92.5 75 92C73.5 91.2688 75.8715 90.9312 73.4715 89.7312C71.0715 88.5312 72.1382 87.2312 72.9715 86.7312C74.8049 85.8979 85 84 85.4715 85.2312Z" fill="#9A5920"/>
<path d="M45 75.8167C38.6592 78.7483 27.5 84.8167 23 88.3167C25 89.9167 29.8333 90.6501 32 90.8167C36 86.3167 48.2 77.0167 65 75.8167C66.6 75.6705 66 76.4225 65.5 76.8167C50.3 80.4167 43.8333 86.9834 42.5 89.8167C41.6667 91.4834 42.3 95.1167 51.5 96.3167C50.6667 90.8167 58.1 79.1167 94.5 76.3167C92 72.8167 56.5 70.5 45 75.8167Z" fill="#975B1C"/>
<path d="M45 60V71C51.4 67.4 66.6667 68.5 73.5 69.5V61.2924C74 61.7924 86.6667 62.8333 93 64V71.5C94.2 71.5 95.8333 72.1667 96.5 72.5L97 62.5L75.5 59H72L58.5 43L45 60Z" fill="#985C16"/>
<path d="M45 60.5L42 60L58.5 39L76 59.5H72L58.5 43L45 60.5Z" fill="#BE6E27"/>
<path d="M82 44L58.5 39L75 59.5L97 62.5L82 44Z" fill="url(#paint0_linear_3_4)"/>
<path d="M73 61V69.5C77 69.5 83 70 92.5 72V63.5L73 61Z" fill="url(#paint1_linear_3_4)"/>
<path d="M51 56V58H65.5V56H59.5V47H57.5V56H51Z" fill="#C1712A"/>
<defs>
<linearGradient id="paint0_linear_3_4" x1="62.5" y1="43" x2="91" y2="63" gradientUnits="userSpaceOnUse">
<stop stop-color="#E2C999"/>
<stop offset="1" stop-color="#FEDB99"/>
</linearGradient>
<linearGradient id="paint1_linear_3_4" x1="73" y1="65.5" x2="93" y2="69" gradientUnits="userSpaceOnUse">
<stop stop-color="#C07029"/>
<stop offset="1" stop-color="#C1722D"/>
</linearGradient>
</defs>
</svg>
