<svg width="270" height="75" viewBox="0 0 270 75" fill="none" xmlns="http://www.w3.org/2000/svg">
<circle cx="37.5" cy="37.5" r="35" stroke="#9B591C" stroke-width="5"/>
<path d="M63.3003 54.3016C60.4203 53.3416 45.7181 55.4486 45.6003 55.8016C45.3002 56.7 49.0309 59.9691 49.8003 59.7016C54.4003 58.1016 64.5431 54.7158 63.3003 54.3016Z" fill="#9C5B1E"/>
<path d="M15.9 45C13.02 46.2 9.70002 45.9 8.40002 45.6C13.44 45.12 16.7 41.8 17.7 40.2H16.8L19.2 35.7L21.3 40.2H20.4C20.88 41.4 23.2 42.1 24.3 42.3C31.02 39.9 46.3 40.9 53.1 41.7V37.8L53.7 37.2H52.5L53.7 35.7H52.2L53.7 34.2L54.6 33.3H52.5L54.9 30.6H53.7L56.7 24.6L59.7 30.6H58.2L60.6 33.3H58.8L60.6 35.7H58.8L60.3 37.2H58.8C58.08 40.32 63.9 44.3 66.9 45.9C65.22 46.14 63.6 45.8 63 45.6C44.7 37.8 19.5 43.5 15.9 45Z" fill="#9D5B1E"/>
<path d="M51.2829 51.1387C51.6 51.6 45.6 55.5 45 55.2C44.1 54.7613 45.5229 54.5587 44.0829 53.8387C42.6429 53.1187 43.2829 52.3387 43.7829 52.0387C44.8829 51.5387 51 50.4 51.2829 51.1387Z" fill="#9A5920"/>
<path d="M27 45.49C23.1955 47.249 16.5 50.89 13.8 52.99C15 53.95 17.9 54.39 19.2 54.49C21.6 51.79 28.92 46.21 39 45.49C39.96 45.4023 39.6 45.8535 39.3 46.09C30.18 48.25 26.3 52.19 25.5 53.89C25 54.89 25.38 57.07 30.9 57.79C30.4 54.49 34.86 47.47 56.7 45.79C55.2 43.69 33.9 42.3 27 45.49Z" fill="#975B1C"/>
<path d="M27 36V42.6C30.84 40.44 40 41.1 44.1 41.7V36.7754C44.4 37.0754 52 37.7 55.8 38.4V42.9C56.52 42.9 57.5 43.3 57.9 43.5L58.2 37.5L45.3 35.4H43.2L35.1 25.8L27 36Z" fill="#985C16"/>
<path d="M27 36.3L25.2 36L35.1 23.4L45.6 35.7H43.2L35.1 25.8L27 36.3Z" fill="#BE6E27"/>
<path d="M49.2 26.4L35.1 23.4L45 35.7L58.2 37.5L49.2 26.4Z" fill="url(#paint0_linear_3_44)"/>
<path d="M43.8 36.6V41.7C46.2 41.7 49.8 42 55.5 43.2V38.1L43.8 36.6Z" fill="url(#paint1_linear_3_44)"/>
<path d="M30.6 33.6V34.8H39.3V33.6H35.7V28.2H34.5V33.6H30.6Z" fill="#C1712A"/>
<path d="M97.0497 49C96.7617 49 96.5217 48.898 96.3297 48.694L92.7297 45.094C92.5257 44.902 92.4237 44.662 92.4237 44.374V25.456C92.4237 25.156 92.5737 25.006 92.8737 25.006H97.9677C98.2677 25.006 98.4177 25.156 98.4177 25.456V44.176H102.45V25.456C102.45 25.156 102.6 25.006 102.9 25.006H107.994C108.294 25.006 108.444 25.156 108.444 25.456V44.176H112.458V25.456C112.458 25.156 112.608 25.006 112.908 25.006H118.02C118.32 25.006 118.47 25.156 118.47 25.456V44.374C118.47 44.662 118.368 44.902 118.164 45.094L114.564 48.694C114.36 48.898 114.12 49 113.844 49H109.614C109.338 49 109.098 48.898 108.894 48.694L105.87 45.67H105.024L102 48.694C101.796 48.898 101.556 49 101.28 49H97.0497ZM127.299 49C127.023 49 126.783 48.898 126.579 48.694L122.979 45.094C122.775 44.902 122.673 44.662 122.673 44.374V33.826C122.673 33.538 122.775 33.298 122.979 33.106L126.579 29.506C126.783 29.302 127.023 29.2 127.299 29.2H132.753C133.041 29.2 133.281 29.302 133.473 29.506L137.073 33.106C137.277 33.298 137.379 33.538 137.379 33.826V44.374C137.379 44.662 137.277 44.902 137.073 45.094L133.473 48.694C133.281 48.898 133.041 49 132.753 49H127.299ZM129.405 44.806H130.665C131.049 44.806 131.313 44.728 131.457 44.572C131.601 44.416 131.673 44.14 131.673 43.744V34.456C131.673 34.06 131.601 33.784 131.457 33.628C131.313 33.472 131.049 33.394 130.665 33.394H129.405C129.009 33.394 128.739 33.472 128.595 33.628C128.451 33.784 128.379 34.06 128.379 34.456V43.744C128.379 44.14 128.451 44.416 128.595 44.572C128.739 44.728 129.009 44.806 129.405 44.806ZM146.072 49C145.796 49 145.556 48.898 145.352 48.694L141.752 45.094C141.548 44.902 141.446 44.662 141.446 44.374V33.826C141.446 33.538 141.548 33.298 141.752 33.106L145.352 29.506C145.556 29.302 145.796 29.2 146.072 29.2H151.526C151.814 29.2 152.054 29.302 152.246 29.506L155.846 33.106C156.05 33.298 156.152 33.538 156.152 33.826V44.374C156.152 44.662 156.05 44.902 155.846 45.094L152.246 48.694C152.054 48.898 151.814 49 151.526 49H146.072ZM148.178 44.806H149.438C149.822 44.806 150.086 44.728 150.23 44.572C150.374 44.416 150.446 44.14 150.446 43.744V34.456C150.446 34.06 150.374 33.784 150.23 33.628C150.086 33.472 149.822 33.394 149.438 33.394H148.178C147.782 33.394 147.512 33.472 147.368 33.628C147.224 33.784 147.152 34.06 147.152 34.456V43.744C147.152 44.14 147.224 44.416 147.368 44.572C147.512 44.728 147.782 44.806 148.178 44.806ZM164.846 49C164.57 49 164.33 48.898 164.126 48.694L160.526 45.094C160.322 44.902 160.22 44.662 160.22 44.374V33.826C160.22 33.538 160.322 33.298 160.526 33.106L164.126 29.506C164.33 29.302 164.57 29.2 164.846 29.2H167.6C167.888 29.2 168.128 29.302 168.32 29.506L169.22 30.406V25.456C169.22 25.156 169.37 25.006 169.67 25.006H174.476C174.776 25.006 174.926 25.156 174.926 25.456V48.55C174.926 48.85 174.776 49 174.476 49H170.732C170.576 49 170.456 48.97 170.372 48.91C170.3 48.85 170.216 48.778 170.12 48.694L169.22 47.794L168.32 48.694C168.128 48.898 167.888 49 167.6 49H164.846ZM166.952 44.806H168.212C168.596 44.806 168.86 44.728 169.004 44.572C169.148 44.416 169.22 44.14 169.22 43.744V33.394H166.952C166.556 33.394 166.286 33.472 166.142 33.628C165.998 33.784 165.926 34.06 165.926 34.456V43.744C165.926 44.14 165.998 44.416 166.142 44.572C166.286 44.728 166.556 44.806 166.952 44.806ZM187.183 49C187.063 49 186.931 48.982 186.787 48.946C186.655 48.91 186.529 48.88 186.409 48.856L183.205 48.064L179.533 46.84C179.173 46.72 178.993 46.372 178.993 45.796V33.826C178.993 33.538 179.095 33.298 179.299 33.106L182.899 29.506C183.103 29.302 183.343 29.2 183.619 29.2H189.379C189.655 29.2 189.895 29.302 190.099 29.506L193.699 33.106C193.903 33.298 194.005 33.538 194.005 33.826V41.206H184.339L184.213 43.6L186.769 44.446L191.359 44.77C191.563 44.806 191.665 44.944 191.665 45.184V48.55C191.665 48.85 191.515 49 191.215 49H187.183ZM186.463 38.38H186.805C187.393 38.38 187.861 38.158 188.209 37.714C188.569 37.27 188.749 36.67 188.749 35.914V35.554C188.749 34.81 188.569 34.216 188.209 33.772C187.861 33.328 187.393 33.106 186.805 33.106H186.445C185.869 33.106 185.407 33.328 185.059 33.772C184.723 34.216 184.555 34.81 184.555 35.554V35.914C184.555 36.67 184.723 37.27 185.059 37.714C185.407 38.158 185.875 38.38 186.463 38.38ZM198.202 49C197.902 49 197.752 48.85 197.752 48.55V29.65C197.752 29.35 197.902 29.2 198.202 29.2H207.832C208.108 29.2 208.348 29.302 208.552 29.506L212.152 33.106C212.356 33.298 212.458 33.538 212.458 33.826V48.55C212.458 48.85 212.308 49 212.008 49H207.202C206.902 49 206.752 48.85 206.752 48.55V34.546C206.752 33.982 206.47 33.7 205.906 33.7H203.458V48.55C203.458 48.85 203.308 49 203.008 49H198.202ZM223.47 49C223.194 49 222.954 48.922 222.75 48.766L219.816 46.084L216.846 42.214C216.714 42.046 216.63 41.944 216.594 41.908C216.558 41.86 216.54 41.752 216.54 41.584V32.404C216.54 32.236 216.558 32.128 216.594 32.08C216.642 32.032 216.726 31.93 216.846 31.774L219.6 28.21L222.75 25.24C222.882 25.132 222.984 25.066 223.056 25.042C223.14 25.018 223.278 25.006 223.47 25.006H227.916C228.216 25.006 228.366 25.156 228.366 25.456V28.336C228.366 28.432 228.354 28.534 228.33 28.642C228.318 28.738 228.258 28.822 228.15 28.894L224.766 31.216L222.552 34.06V39.946L224.802 42.79L228.15 45.094C228.246 45.154 228.306 45.226 228.33 45.31C228.354 45.394 228.366 45.484 228.366 45.58V48.55C228.366 48.85 228.216 49 227.916 49H223.47ZM232.303 49C232.003 49 231.853 48.85 231.853 48.55V29.65C231.853 29.35 232.003 29.2 232.303 29.2H237.091C237.391 29.2 237.541 29.35 237.541 29.65V48.55C237.541 48.85 237.391 49 237.091 49H232.303ZM232.213 27.706C231.973 27.706 231.853 27.586 231.853 27.346V25.06C231.853 24.82 231.973 24.7 232.213 24.7H237.217C237.433 24.7 237.541 24.82 237.541 25.06V27.346C237.541 27.586 237.433 27.706 237.217 27.706H232.213ZM245.872 49C245.596 49 245.356 48.898 245.152 48.694L242.146 45.706C241.954 45.502 241.858 45.262 241.858 44.986V33.394H241.102C240.802 33.394 240.652 33.244 240.652 32.944V29.65C240.652 29.35 240.802 29.2 241.102 29.2H241.858V26.95C241.858 26.65 242.008 26.5 242.308 26.5H247.096C247.396 26.5 247.546 26.65 247.546 26.95V29.2H249.292C249.592 29.2 249.742 29.35 249.742 29.65V32.944C249.742 33.244 249.592 33.394 249.292 33.394H247.546V43.006C247.546 43.234 247.618 43.42 247.762 43.564L249.526 45.346C249.646 45.454 249.706 45.634 249.706 45.886V48.55C249.706 48.85 249.556 49 249.256 49H245.872ZM258.166 54.994C257.866 54.994 257.716 54.844 257.716 54.544V51.736C257.716 51.508 257.806 51.376 257.986 51.34L260.632 50.674L262.486 49.684C262.666 49.588 262.756 49.402 262.756 49.126V46.174L261.082 47.74C260.878 47.944 260.638 48.046 260.362 48.046L257.302 48.154C257.026 48.154 256.786 48.058 256.582 47.866L253.288 44.554C253.084 44.362 252.982 44.122 252.982 43.834V29.65C252.982 29.35 253.132 29.2 253.432 29.2H258.238C258.538 29.2 258.688 29.35 258.688 29.65V43.204C258.688 43.6 258.76 43.876 258.904 44.032C259.048 44.188 259.312 44.266 259.696 44.266H261.982V29.65C261.982 29.35 262.132 29.2 262.432 29.2H267.238C267.538 29.2 267.688 29.35 267.688 29.65V51.286C267.688 51.646 267.586 51.886 267.382 52.006L264.988 53.536L261.946 54.796C261.766 54.868 261.628 54.916 261.532 54.94C261.448 54.976 261.31 54.994 261.118 54.994H258.166Z" fill="#9B591C"/>
<defs>
<linearGradient id="paint0_linear_3_44" x1="37.5" y1="25.8" x2="54.6" y2="37.8" gradientUnits="userSpaceOnUse">
<stop stop-color="#E2C999"/>
<stop offset="1" stop-color="#FEDB99"/>
</linearGradient>
<linearGradient id="paint1_linear_3_44" x1="43.8" y1="39.3" x2="55.8" y2="41.4" gradientUnits="userSpaceOnUse">
<stop stop-color="#C07029"/>
<stop offset="1" stop-color="#C1722D"/>
</linearGradient>
</defs>
</svg>
