<svg width="44" height="40" viewBox="0 0 44 40" fill="none" xmlns="http://www.w3.org/2000/svg">
<path d="M43.86 31.3471L33.3223 16.4225V15.9086C33.3223 15.7592 33.2765 15.6156 33.1901 15.4933L30.9976 12.388C30.8307 12.1513 30.5437 12.0376 30.2625 12.089L23.831 2.97993V2.43662C23.831 2.2436 23.755 2.06196 23.6165 1.92473L22.5178 0.839039C22.2321 0.557107 21.7675 0.557277 21.4821 0.839293L20.3842 1.92422C20.2454 2.06094 20.169 2.24292 20.169 2.43671V2.98002L15.7249 9.27414C15.5213 9.56261 15.5928 9.95961 15.8847 10.1609C16.1766 10.3621 16.5785 10.2914 16.782 10.003L20.1689 5.20617V7.07771L14.3395 15.3339V13.4623L15.0595 12.4426C15.2632 12.1541 15.1917 11.7571 14.8998 11.5558C14.6079 11.3547 14.2061 11.4251 14.0024 11.7137L13.7375 12.089C13.4564 12.0375 13.1696 12.1511 13.0026 12.3877L10.8093 15.4941C10.7233 15.6164 10.6777 15.7598 10.6777 15.9086V16.4225L0.139734 31.3473C0.0486406 31.4766 0 31.6305 0 31.787V33.9583C0 34.3823 0.349078 34.7271 0.778078 34.7271H2.37282V38.6452C2.37282 39.0706 2.72302 39.4165 3.15339 39.4165H40.8465C41.277 39.4165 41.6271 39.0705 41.6271 38.6452V34.7271H43.2219C43.6509 34.7271 44 34.3822 44 33.9583V31.787C44 31.6319 43.9529 31.4794 43.86 31.3471ZM42.1199 31.1086H40.7984C39.2913 28.9741 34.6473 22.3969 33.3223 20.5203V18.6486L42.1199 31.1086ZM33.3223 22.7463L37.5711 28.7639H33.3223V22.7463ZM33.3223 30.0377H38.4705L39.2267 31.1086H33.3223V30.0377ZM32.0332 16.0808V31.1086H30.9494V23.6161C30.9494 23.2643 30.661 22.9792 30.3049 22.9792C29.9489 22.9792 29.6604 23.2643 29.6604 23.6161V28.7639H23.831V9.30395L29.6604 17.5601V20.6437C29.6604 20.9954 29.9489 21.2806 30.3049 21.2806C30.661 21.2806 30.9494 20.9954 30.9494 20.6437C30.9494 18.0674 30.9494 17.2941 30.9494 14.5458L32.0332 16.0808ZM23.831 31.1086V30.0377H29.6604V31.1086H23.831ZM29.6604 13.4624V15.334L23.831 7.07779V5.20617L29.6604 13.4624ZM22 2.12896L22.5418 2.66438V31.1086H21.4581C21.4581 11.399 21.4581 17.107 21.4581 2.66438L22 2.12896ZM14.3396 31.1086V30.0377H20.169V31.1086H14.3396ZM20.169 9.30386V28.7638H14.3396V17.5601L20.169 9.30386ZM13.0506 14.5459V31.1086H11.9668C11.9668 24.0052 11.9668 22.951 11.9668 16.0808L13.0506 14.5459ZM4.7734 31.1086L5.52956 30.0377H10.6777V31.1086H4.7734ZM10.6777 28.7639H6.42898L10.6777 22.7464V28.7639ZM10.6777 20.5202C9.65843 21.9639 4.22675 29.6568 3.2016 31.1086H1.88014L10.6777 18.6487V20.5202ZM42.7109 33.4534C40.4495 33.4534 12.6458 33.4534 10.438 33.4534C10.082 33.4534 9.79344 33.7386 9.79344 34.0903C9.79344 34.4421 10.082 34.7272 10.438 34.7272H40.3381V38.1428H3.66188V34.7272H7.43007C7.78602 34.7272 8.0746 34.4421 8.0746 34.0903C8.0746 33.7386 7.78602 33.4534 7.43007 33.4534C2.97 33.4534 6.30945 33.4534 1.28906 33.4534V32.3825H42.7109V33.4534Z" fill="#685749"/>
</svg>
