<svg width="44" height="37" viewBox="0 0 44 37" fill="none" xmlns="http://www.w3.org/2000/svg">
<path d="M42.1358 36.8225H21.7999C21.7918 36.8225 21.7838 36.8225 21.7755 36.8225H1.88537C1.55786 36.8225 1.29249 36.5625 1.29249 36.2416V18.9155H0.592885C0.265375 18.9155 0 18.6555 0 18.3346V4.53553C0 4.21463 0.265375 3.95462 0.592885 3.95462H9.01184V0.841893C9.01184 0.521 9.27722 0.260986 9.60473 0.260986H13.3207C13.6482 0.260986 13.9136 0.521 13.9136 0.841893V3.95462H31.1497L31.4995 3.5122C31.6117 3.37023 31.7848 3.28704 31.9681 3.28704C32.1514 3.28704 32.3245 3.37023 32.4367 3.5122L43.8758 17.9789C44.0143 18.1541 44.039 18.3913 43.9396 18.5904C43.8403 18.7896 43.6335 18.9155 43.4072 18.9155H42.729V36.2416C42.7287 36.5625 42.4633 36.8225 42.1358 36.8225ZM22.3928 35.6607H41.5429V18.3346C41.5429 18.0137 41.8083 17.7537 42.1358 17.7537H42.1977L31.9679 4.81645L21.7382 17.7537H21.7999C22.1274 17.7537 22.3928 18.0137 22.3928 18.3346V35.6607ZM19.7836 35.6607H21.207V18.9155H20.529C20.5209 18.9155 20.5129 18.9155 20.5046 18.9155H2.47826V35.6607H14.2437V28.4614C14.2437 28.1405 14.5091 27.8805 14.8366 27.8805H19.1905C19.518 27.8805 19.7834 28.1405 19.7834 28.4614L19.7836 35.6607ZM15.4297 35.6563H18.5978V29.0423H15.4297V35.6563ZM1.18577 17.7537H20.214L30.2068 5.1162H13.9133V9.6008C13.9133 9.92169 13.648 10.1817 13.3205 10.1817H9.60473C9.27722 10.1817 9.01184 9.92169 9.01184 9.6008V5.1162H1.18577V17.7537ZM10.1976 9.02013H12.7278V1.4228H10.1976V9.02013ZM38.4626 34.2435H34.1086C33.7811 34.2435 33.5158 33.9835 33.5158 33.6626V28.4614C33.5158 28.1405 33.7811 27.8805 34.1086 27.8805H38.4626C38.7901 27.8805 39.0554 28.1405 39.0554 28.4614V33.6626C39.0554 33.9833 38.7898 34.2435 38.4626 34.2435ZM34.7013 33.0817H37.8694V29.0423H34.7013V33.0817ZM29.8273 34.2435H25.4734C25.1459 34.2435 24.8805 33.9835 24.8805 33.6626V28.4614C24.8805 28.1405 25.1459 27.8805 25.4734 27.8805H29.8273C30.1548 27.8805 30.4202 28.1405 30.4202 28.4614V33.6626C30.4202 33.9833 30.1548 34.2435 29.8273 34.2435ZM26.0663 33.0817H29.2344V29.0423H26.0663V33.0817ZM11.3734 34.2435H4.97312C4.64561 34.2435 4.38023 33.9835 4.38023 33.6626V28.4614C4.38023 28.1405 4.64561 27.8805 4.97312 27.8805H11.3737C11.7012 27.8805 11.9665 28.1405 11.9665 28.4614V33.6626C11.9663 33.9833 11.7009 34.2435 11.3734 34.2435ZM5.566 33.0817H10.7808V29.0423H5.566V33.0817ZM38.4626 26.2751H34.1086C33.7811 26.2751 33.5158 26.0151 33.5158 25.6942V20.4933C33.5158 20.1724 33.7811 19.9124 34.1086 19.9124H38.4626C38.7901 19.9124 39.0554 20.1724 39.0554 20.4933V25.6942C39.0554 26.0149 38.7898 26.2751 38.4626 26.2751ZM34.7013 25.1133H37.8694V21.0742H34.7013V25.1133ZM29.8273 26.2751H25.4734C25.1459 26.2751 24.8805 26.0151 24.8805 25.6942V20.4933C24.8805 20.1724 25.1459 19.9124 25.4734 19.9124H29.8273C30.1548 19.9124 30.4202 20.1724 30.4202 20.4933V25.6942C30.4202 26.0149 30.1548 26.2751 29.8273 26.2751ZM26.0663 25.1133H29.2344V21.0742H26.0663V25.1133ZM19.1907 26.2751H14.8368C14.5093 26.2751 14.2439 26.0151 14.2439 25.6942V20.4933C14.2439 20.1724 14.5093 19.9124 14.8368 19.9124H19.1907C19.5182 19.9124 19.7836 20.1724 19.7836 20.4933V25.6942C19.7836 26.0149 19.5182 26.2751 19.1907 26.2751ZM15.4297 25.1133H18.5978V21.0742H15.4297V25.1133ZM11.3734 26.2751H4.97312C4.64561 26.2751 4.38023 26.0151 4.38023 25.6942V20.4933C4.38023 20.1724 4.64561 19.9124 4.97312 19.9124H11.3737C11.7012 19.9124 11.9665 20.1724 11.9665 20.4933V25.6942C11.9663 26.0149 11.7009 26.2751 11.3734 26.2751ZM5.566 25.1133H10.7808V21.0742H5.566V25.1133Z" fill="#685749"/>
</svg>
