<svg width="34" height="34" viewBox="0 0 34 34" fill="none" xmlns="http://www.w3.org/2000/svg">
<path d="M27.2181 5.26099H6.58905C5.62405 5.26099 4.83905 6.03668 4.83905 6.99025V27.3748C4.83905 28.3284 5.62405 29.1041 6.58905 29.1041H27.2181C28.1831 29.1041 28.9681 28.3284 28.9681 27.3748V6.99025C28.9681 6.03668 28.1831 5.26099 27.2181 5.26099ZM27.4681 27.3748C27.4681 27.5112 27.3561 27.6218 27.2181 27.6218H6.58905C6.45105 27.6218 6.33905 27.5112 6.33905 27.3748V6.99025C6.33905 6.85388 6.45105 6.74321 6.58905 6.74321H27.2181C27.3561 6.74321 27.4681 6.85388 27.4681 6.99025V27.3748Z" fill="#7C6E5C"/>
<path d="M28.218 0.260986C27.804 0.260986 27.468 0.593993 27.468 1.0021V3.57524C27.468 3.98335 27.804 4.31635 28.218 4.31635C28.63 4.31635 28.968 3.98335 28.968 3.57524V1.0021C28.968 0.593993 28.632 0.260986 28.218 0.260986Z" fill="#7C6E5C"/>
<path d="M5.58905 4.31733C6.00205 4.31733 6.33905 3.98432 6.33905 3.57622V1.00308C6.33905 0.594969 6.00205 0.261963 5.58905 0.261963C5.17605 0.261963 4.83905 0.594969 4.83905 1.00308V3.57622C4.83905 3.98432 5.17605 4.31733 5.58905 4.31733Z" fill="#7C6E5C"/>
<path d="M28.218 29.7029C27.804 29.7029 27.468 30.0359 27.468 30.444V33.0171C27.468 33.4252 27.804 33.7582 28.218 33.7582C28.63 33.7582 28.968 33.4252 28.968 33.0171V30.444C28.968 30.0359 28.632 29.7029 28.218 29.7029Z" fill="#7C6E5C"/>
<path d="M5.58905 29.7029C5.17605 29.7029 4.83905 30.0359 4.83905 30.444V33.0171C4.83905 33.4252 5.17605 33.7582 5.58905 33.7582C6.00205 33.7582 6.33905 33.4252 6.33905 33.0171V30.444C6.33905 30.0359 6.00405 29.7029 5.58905 29.7029Z" fill="#7C6E5C"/>
<path d="M3.52203 27.6218H0.91803C0.50503 27.6218 0.16803 27.9548 0.16803 28.3629C0.16803 28.771 0.50503 29.1041 0.91803 29.1041H3.52203C3.93503 29.1041 4.27203 28.771 4.27203 28.3629C4.27203 27.9548 3.93503 27.6218 3.52203 27.6218Z" fill="#7C6E5C"/>
<path d="M3.52203 5.26099H0.91803C0.50503 5.26099 0.16803 5.59399 0.16803 6.0021C0.16803 6.4102 0.50503 6.74321 0.91803 6.74321H3.52203C3.93503 6.74321 4.27203 6.4102 4.27203 6.0021C4.27203 5.59399 3.93503 5.26099 3.52203 5.26099Z" fill="#7C6E5C"/>
<path d="M32.98 27.6218H30.376C29.962 27.6218 29.626 27.9548 29.626 28.3629C29.626 28.771 29.962 29.1041 30.376 29.1041H32.98C33.392 29.1041 33.73 28.771 33.73 28.3629C33.73 27.9548 33.392 27.6218 32.98 27.6218Z" fill="#7C6E5C"/>
<path d="M30.377 6.74321H32.981C33.393 6.74321 33.731 6.4102 33.731 6.0021C33.731 5.59399 33.393 5.26099 32.981 5.26099H30.377C29.963 5.26099 29.627 5.59399 29.627 6.0021C29.627 6.4102 29.963 6.74321 30.377 6.74321Z" fill="#7C6E5C"/>
</svg>
