<svg width="34" height="35" viewBox="0 0 34 35" fill="none" xmlns="http://www.w3.org/2000/svg">
<path d="M13.0334 31.3948H20.9667H22.1H31.1667V22.4356V21.3157V13.4763V12.3564V3.39722H22.1H20.9667H13.0334H11.9H2.83337V31.3948H11.9H13.0334ZM20.9667 30.2749H13.0334V17.956H20.9667V21.3157V22.4356V30.2749ZM30.0334 30.2749H22.1V22.4356H30.0334V30.2749ZM30.0334 21.3157H22.1V13.4763H30.0334V21.3157ZM22.1 4.51712H30.0334V12.3564H22.1V4.51712ZM20.9667 4.51712V12.3564V13.4763V16.8361H13.0334V4.51712H20.9667ZM3.96671 30.2749V4.51712H11.9V30.2749H3.96671Z" fill="#685749"/>
<path d="M0 0.597412V34.1945H34V0.597412H0ZM32.8667 33.0746H1.13333V1.71732H32.8667V33.0746Z" fill="#685749"/>
</svg>
