<svg width="100" height="100" viewBox="0 0 100 100" fill="none" xmlns="http://www.w3.org/2000/svg">
<path d="M99.7877 61.436L95.3944 49.9999L99.7814 38.5575C100.269 37.2951 99.8814 35.8578 98.8315 35.0079L89.3139 27.2963L87.3892 15.1915C87.1767 13.8604 86.1268 12.8105 84.7957 12.5981L72.6909 10.6733L64.9793 1.15567C64.1294 0.105798 62.6983 -0.275406 61.4297 0.205786L49.9936 4.59901L38.5512 0.212036C37.2889 -0.275406 35.8578 0.105798 35.0079 1.16192L27.2963 10.6795L15.1915 12.6043C13.8604 12.8168 12.8105 13.8667 12.5981 15.1978L10.6733 27.3026L1.15567 35.0141C0.105798 35.864 -0.275406 37.2951 0.205786 38.5575L4.59276 49.9999L0.205786 61.4422C-0.275406 62.7046 0.105798 64.1357 1.15567 64.9856L10.6733 72.6972L12.5981 84.802C12.8105 86.1331 13.8604 87.1829 15.1915 87.3954L27.2963 89.3202L35.0079 98.8378C35.864 99.8939 37.2951 100.281 38.5575 99.7877L49.9936 95.4007L61.436 99.7877C61.7985 99.9252 62.1797 99.9939 62.5546 99.9939C63.4733 99.9939 64.3794 99.5877 64.9856 98.8378L72.6972 89.3202L84.802 87.3954C86.1331 87.1829 87.1829 86.1331 87.3954 84.802L89.3202 72.6972L98.8378 64.9856C99.8877 64.1357 100.269 62.6983 99.7877 61.436ZM89.1202 51.1185L93.126 61.5547L84.4333 68.5914C83.8333 69.0788 83.4334 69.7663 83.3146 70.5287L81.5586 81.5711L70.5162 83.3271C69.7538 83.4459 69.0663 83.8458 68.5789 84.4458L61.5547 93.1385L51.1185 89.1327C50.756 89.0015 50.3748 88.9265 49.9936 88.9265C49.6124 88.9265 49.2312 88.9952 48.875 89.1327L38.4387 93.1385L31.4021 84.4458C30.9146 83.8458 30.2272 83.4459 29.4648 83.3271L18.4224 81.5711L16.6663 70.5287C16.5476 69.7663 16.1476 69.0788 15.5477 68.5914L6.85499 61.561L10.8608 51.1247C11.1357 50.3998 11.1357 49.5999 10.8545 48.8812L6.85499 38.4387L15.5477 31.4021C16.1476 30.9146 16.5476 30.2272 16.6663 29.4648L18.4224 18.4224L29.4648 16.6663C30.2272 16.5476 30.9146 16.1476 31.4021 15.5477L38.4325 6.86124L48.8687 10.867C49.5874 11.142 50.3873 11.142 51.106 10.867L61.5422 6.86124L68.5789 15.554C69.0663 16.1539 69.7538 16.5538 70.5162 16.6726L81.5586 18.4286L83.3146 29.4711C83.4334 30.2335 83.8333 30.9209 84.4333 31.4083L93.126 38.445L89.1202 48.8812C88.8452 49.5999 88.8452 50.3998 89.1202 51.1185Z" fill="#9B591C"/>
<path d="M40.6197 25.0024C35.4516 25.0024 31.2458 29.2082 31.2458 34.3763C31.2458 39.5445 35.4516 43.7502 40.6197 43.7502C45.7879 43.7502 49.9936 39.5445 49.9936 34.3763C49.9936 29.2082 45.7879 25.0024 40.6197 25.0024ZM40.6197 37.501C38.8949 37.501 37.4951 36.1011 37.4951 34.3763C37.4951 32.6515 38.8949 31.2517 40.6197 31.2517C42.3445 31.2517 43.7444 32.6515 43.7444 34.3763C43.7444 36.1011 42.3445 37.501 40.6197 37.501Z" fill="#9B591C"/>
<path d="M59.3674 56.2485C54.1993 56.2485 49.9935 60.4543 49.9935 65.6224C49.9935 70.7906 54.1993 74.9963 59.3674 74.9963C64.5355 74.9963 68.7413 70.7906 68.7413 65.6224C68.7413 60.4543 64.5355 56.2485 59.3674 56.2485ZM59.3674 68.747C57.6426 68.747 56.2428 67.3472 56.2428 65.6224C56.2428 63.8976 57.6426 62.4978 59.3674 62.4978C61.0922 62.4978 62.492 63.8976 62.492 65.6224C62.492 67.3472 61.0922 68.747 59.3674 68.747Z" fill="#9B591C"/>
<path d="M67.4352 25.5899C66.0354 24.5901 64.0794 24.915 63.0795 26.3149L31.8332 70.0596C30.8271 71.4595 31.152 73.4155 32.5519 74.4154C33.1018 74.8091 33.7392 74.9966 34.3704 74.9966C35.3453 74.9966 36.3077 74.5404 36.9138 73.6905L68.1601 29.9457C69.1662 28.5396 68.835 26.5898 67.4352 25.5899Z" fill="#9B591C"/>
</svg>
