<svg width="100" height="100" viewBox="0 0 100 100" fill="none" xmlns="http://www.w3.org/2000/svg">
<path d="M78 19.3673C79.898 17.3265 81.0816 14.551 81.0816 11.4898C81.0816 5.10204 75.9796 0 69.7959 0C65.102 0 54.2857 7.02041 49.9592 13.3265C45.4898 7.02041 34.7143 0.204082 30.2041 0.204082C24.0408 0.204082 18.9184 5.30612 18.9184 11.6939C18.9184 14.6531 20.0204 17.3265 21.7959 19.3469H0V46.7959H5.95918V100H37.2449H62.7755H94.0612V46.8163H100V19.3673H78ZM69.7959 4.26531C73.6327 4.26531 76.8163 7.44898 76.8163 11.7143C76.8163 15.3061 74.3061 18.3878 71.0612 19.0408H53.7959C52.6939 18.7143 52.3469 18.3265 52.3469 18.102C52.3469 14.4694 65.102 4.26531 69.7959 4.26531ZM30.2041 4.26531C34.6735 4.26531 47.6531 14.4694 47.6531 18.102C47.6531 18.4286 46.898 18.7959 46.3469 19.0408H28.9592C25.7143 18.3878 23.2041 15.3061 23.2041 11.7143C23.1837 7.65306 26.3878 4.26531 30.2041 4.26531ZM37.2245 95.7347H10.2041V46.8163H37.2245V95.7347ZM37.2245 42.7755H4.26531V23.6327H37.2449V42.7755H37.2245ZM58.4898 95.7347H41.4694V23.6122H58.4898V95.7347ZM89.7755 95.7347H62.7551V46.8163H89.7755V95.7347ZM95.7143 42.7755H62.7551V23.6327H95.7347V42.7755H95.7143Z" fill="#985C16"/>
</svg>
