<svg width="46" height="54" viewBox="0 0 46 54" fill="none" xmlns="http://www.w3.org/2000/svg">
<path d="M44.4462 12.4304H39.7771V7.76897C39.7771 6.91115 39.0816 6.21518 38.2233 6.21518H29.9587L24.1983 0.455213C23.907 0.163472 23.5121 0 23.0997 0H1.55379C0.695566 0 0 0.695566 0 1.55379V39.052C0 39.9103 0.695566 40.6058 1.55379 40.6058H6.21518V45.2672C6.21518 46.125 6.91074 46.821 7.76897 46.821H12.438V51.4824C12.438 52.3406 13.1336 53.0362 13.9918 53.0362H44.4462C45.304 53.0362 46 52.3406 46 51.4824V13.9841C46 13.1259 45.3044 12.4304 44.4462 12.4304ZM24.2392 4.89081L29.2931 9.94428H24.2392V4.89081ZM3.10759 3.10759H21.1316V11.4981C21.1316 12.3563 21.8272 13.0519 22.6854 13.0519H30.4544V37.4982H3.10759V3.10759ZM9.32277 40.6058H32.0082C32.8664 40.6058 33.562 39.9103 33.562 39.052V10.4622C33.562 10.0499 33.3981 9.65497 33.1067 9.36363L33.0659 9.32277H36.6695V43.7134H9.32277V40.6058ZM42.8924 49.9286H15.5456V46.821H38.2233C39.0816 46.821 39.7771 46.125 39.7771 45.2672V15.5379H42.8924V49.9286Z" fill="#685749"/>
<path d="M7.769 9.32292H13.9878C14.8461 9.32292 15.5416 8.62735 15.5416 7.76913C15.5416 6.9113 14.8461 6.21533 13.9878 6.21533H7.769C6.91078 6.21533 6.21521 6.9113 6.21521 7.76913C6.21521 8.62735 6.91078 9.32292 7.769 9.32292Z" fill="#685749"/>
<path d="M7.769 15.5378H13.9741C14.8319 15.5378 15.5279 14.8422 15.5279 13.984C15.5279 13.1257 14.8319 12.4302 13.9741 12.4302H7.769C6.91078 12.4302 6.21521 13.1257 6.21521 13.984C6.21521 14.8422 6.91078 15.5378 7.769 15.5378Z" fill="#685749"/>
<path d="M24.1874 18.6455H7.769C6.91078 18.6455 6.21521 19.3411 6.21521 20.1993C6.21521 21.0575 6.91078 21.7531 7.769 21.7531H24.1874C25.0457 21.7531 25.7412 21.0575 25.7412 20.1993C25.7412 19.3411 25.0457 18.6455 24.1874 18.6455Z" fill="#685749"/>
<path d="M24.1874 24.8604H7.769C6.91078 24.8604 6.21521 25.5559 6.21521 26.4141C6.21521 27.2724 6.91078 27.9679 7.769 27.9679H24.1874C25.0457 27.9679 25.7412 27.2724 25.7412 26.4141C25.7412 25.5559 25.0457 24.8604 24.1874 24.8604Z" fill="#685749"/>
<path d="M24.1874 31.0762H7.769C6.91078 31.0762 6.21521 31.7717 6.21521 32.63C6.21521 33.4882 6.91078 34.1838 7.769 34.1838H24.1874C25.0457 34.1838 25.7412 33.4882 25.7412 32.63C25.7412 31.7717 25.0457 31.0762 24.1874 31.0762Z" fill="#685749"/>
</svg>
