<svg width="58" height="47" viewBox="0 0 58 47" fill="none" xmlns="http://www.w3.org/2000/svg">
<path d="M56.5793 1.41958C55.6329 0.473157 54.4952 0 53.1663 0H4.83325C3.50414 0 2.36663 0.473052 1.41958 1.41958C0.473052 2.36621 0 3.50371 0 4.83294V41.5654C0 42.8949 0.473052 44.0325 1.41958 44.9791C2.36663 45.9256 3.50414 46.3988 4.83325 46.3988H53.1663C54.4952 46.3988 55.6328 45.9256 56.5793 44.9791C57.5258 44.0326 57.9995 42.895 57.9995 41.5654V4.83294C57.9995 3.50371 57.5258 2.36621 56.5793 1.41958ZM54.1324 41.5661C54.1324 41.8283 54.0369 42.0542 53.8456 42.2461C53.6544 42.4366 53.4277 42.5321 53.1663 42.5321H4.83325C4.5716 42.5321 4.34496 42.4366 4.15367 42.2454C3.96248 42.0536 3.86673 41.8276 3.86673 41.5654V23.1994H54.1325L54.1324 41.5661ZM54.1324 11.5991H3.86662V4.83251C3.86662 4.57075 3.96206 4.34465 4.15356 4.15293C4.34496 3.96216 4.5716 3.86641 4.83315 3.86641H53.1662C53.4276 3.86641 53.6543 3.96174 53.8455 4.15293C54.0368 4.34465 54.1323 4.57075 54.1323 4.83251V11.5991H54.1324Z" fill="#685749"/>
<path d="M15.4665 34.7988H7.7334V38.6658H15.4665V34.7988Z" fill="#685749"/>
<path d="M30.9333 34.7988H19.3335V38.6658H30.9333V34.7988Z" fill="#685749"/>
</svg>
