<svg width="64" height="64" viewBox="0 0 64 64" fill="none" xmlns="http://www.w3.org/2000/svg">
<path d="M39.1318 32.8368H36.4257V31.7598C36.4257 30.7906 35.7508 29.9741 34.8454 29.7588V17.5735C35.752 17.3443 36.4257 16.5217 36.4257 15.5437V14.2301H39.7541C41.758 14.2301 42.4403 11.6589 40.7596 10.6738L32.4024 5.76513H32.5814C33.0998 5.76513 33.5206 5.34444 33.5206 4.82594C33.5206 4.30744 33.0999 3.88675 32.5814 3.88675H29.2044L24.0664 0.868936C22.0946 -0.289084 19.6175 -0.290207 17.6438 0.868936L8.61778 6.17073C8.17077 6.43372 8.02043 7.00849 8.28342 7.4555C8.54642 7.90252 9.12243 8.05285 9.56945 7.78986L18.5954 2.48794C19.9745 1.67775 21.7257 1.67189 23.1147 2.48794C23.1278 2.49555 39.8187 12.3025 39.8318 12.309C39.8279 12.3753 40.5476 12.3516 28.6883 12.3516C28.1599 12.3516 27.7491 12.784 27.7491 13.2908C27.7491 13.8091 28.1698 14.23 28.6883 14.23H28.955V15.5436C28.955 16.5215 29.6275 17.3455 30.5353 17.5746V29.7587C29.6299 29.974 28.955 30.7906 28.955 31.7597V32.8366H24.591V31.7597C24.591 30.7904 23.9161 29.974 23.0107 29.7587V17.5734C23.9173 17.3442 24.591 16.5215 24.591 15.5436V14.23H24.9316C25.45 14.23 25.8708 13.8093 25.8708 13.2908C25.8708 12.7723 25.4501 12.3516 24.9316 12.3516C24.0504 12.3516 22.3734 12.3516 21.4936 12.3516C23.7913 12.0389 25.5681 10.0651 25.5681 7.68307C25.5681 5.08432 23.4538 2.97014 20.8552 2.97014C18.2565 2.97014 16.1423 5.08432 16.1423 7.68307C16.1423 10.0652 17.9192 12.0389 20.2168 12.3516C18.6099 12.3516 4.21064 12.3516 1.95586 12.3516C1.92953 12.3516 1.87826 12.3516 1.87327 12.314C1.87327 12.314 1.88075 12.3065 1.90209 12.2927L6.32994 9.69182C6.77695 9.43008 6.92729 8.85406 6.66429 8.40705C6.4013 7.96003 5.82528 7.8097 5.37827 8.07269L0.95042 10.6738C0.35569 11.0231 0 11.633 0 12.3042C0 13.3836 0.858971 14.2301 1.95598 14.2301H5.28432V15.5437C5.28432 16.5217 5.95803 17.3456 6.8659 17.5748V29.7588C5.95928 29.9741 5.28432 30.7907 5.28432 31.7598V32.8368H2.61459C1.19333 32.8368 0.0363051 33.9938 0.0363051 35.415V36.8614C0.0363051 38.2826 1.19333 39.4397 2.61459 39.4397H6.3237V41.7596C6.3237 42.2782 6.74414 42.6988 7.26289 42.6988C7.78164 42.6988 8.20208 42.2783 8.20208 41.7596V39.4397H27.9008C28.4204 39.4397 28.84 39.019 28.84 38.5005C28.84 37.982 28.4205 37.5613 27.9008 37.5613H2.61459C2.22896 37.5613 1.91456 37.247 1.91456 36.8613V35.4149C1.91456 35.0293 2.22883 34.7149 2.61459 34.7149H5.4283C9.74761 34.7149 31.6496 34.7149 39.1318 34.7149C39.5187 34.7149 39.8318 35.0292 39.8318 35.4149V36.8613C39.8318 37.2469 39.5188 37.5613 39.1318 37.5613H31.6573C31.1389 37.5613 30.7181 37.982 30.7181 38.5005C30.7181 39.019 31.1388 39.4397 31.6573 39.4397H39.1318C40.5543 39.4397 41.7101 38.2826 41.7101 36.8614V35.415C41.7101 33.9938 40.5543 32.8368 39.1318 32.8368ZM21.8222 6.52642C22.1219 6.52642 22.2815 6.23386 22.2815 6.02276C22.2815 5.71111 21.9768 5.49777 21.4191 5.41543C21.4131 5.3931 21.4774 5.00472 21.1047 4.86013C22.5515 4.98688 23.6901 6.20416 23.6901 7.68331C23.6901 9.10383 22.6398 10.2834 21.2749 10.4868C21.4591 10.3028 21.4118 10.0765 21.4191 10.0273C22.0328 9.85576 22.3815 9.36084 22.3815 8.65045C22.3815 7.76578 21.8763 7.43479 21.3574 7.22357L21.3582 7.22071C20.8456 7.01647 20.5373 6.98341 20.5373 6.66166C20.5371 5.95901 21.772 6.52642 21.8222 6.52642ZM18.0207 7.68319C18.0207 6.14465 19.2531 4.88919 20.7826 4.85039C20.3613 4.98214 20.4453 5.44537 20.4369 5.47744C19.8868 5.65722 19.5743 6.09487 19.5743 6.69509C19.5743 7.59523 20.238 7.84463 20.7225 8.02665C21.2052 8.20805 21.4188 8.30424 21.4188 8.68376C21.4188 9.27737 20.6586 9.27787 20.3023 8.89373C20.2231 8.80827 20.1144 8.69125 19.9392 8.69125C19.6732 8.69125 19.4744 8.95711 19.4744 9.1949C19.4744 9.55421 19.8875 9.90878 20.4368 10.0389C20.4466 10.0957 20.3935 10.3197 20.6046 10.5063C19.1587 10.3787 18.0207 9.16172 18.0207 7.68319ZM10.8781 32.8368H7.16271V31.7598C7.16271 31.6621 7.2453 31.5795 7.34423 31.5795H10.6977C10.7953 31.5795 10.8779 31.6621 10.8779 31.7598L10.8781 32.8368ZM8.74429 29.7012V17.6386H9.29772V29.7013H8.74429V29.7012ZM10.8781 15.5437C10.8781 15.6613 10.7779 15.7603 10.6602 15.7603C9.55186 15.7603 8.58759 15.7603 7.38066 15.7603C7.26301 15.7603 7.16283 15.6613 7.16283 15.5437V14.2301H10.8782L10.8781 15.5437ZM18.7006 29.7576C17.7952 29.9729 17.1203 30.7894 17.1203 31.7598V32.8368H12.7563V31.7598C12.7563 30.7906 12.0814 29.9741 11.176 29.7588V17.5735C12.0826 17.3443 12.7563 16.5217 12.7563 15.5437V14.2301H17.1203V15.5437C17.1203 16.5217 17.7927 17.3456 18.7006 17.5748V29.7576ZM22.7128 32.8368H18.9987V31.7598C18.9987 31.6621 19.0813 31.5795 19.1789 31.5795H22.5324C22.6301 31.5795 22.7126 31.6621 22.7126 31.7598V32.8368H22.7128ZM20.579 29.7012V17.6386H21.1324V29.7013H20.579V29.7012ZM22.7128 15.5437C22.7128 15.6613 22.6126 15.7603 22.4949 15.7603C21.2908 15.7603 20.3272 15.7603 19.2154 15.7603C19.0977 15.7603 18.9988 15.6613 18.9988 15.5437V14.2301H22.7129L22.7128 15.5437ZM30.8334 14.2301H34.5475V15.5437C34.5475 15.6613 34.4473 15.7603 34.3296 15.7603C33.1255 15.7603 32.1619 15.7603 31.0501 15.7603C30.9324 15.7603 30.8335 15.6613 30.8335 15.5437V14.2301H30.8334ZM32.9671 17.6386V29.7013H32.4137V17.6386H32.9671ZM34.5475 32.8368H30.8334V31.7598C30.8334 31.6621 30.916 31.5795 31.0137 31.5795H34.3671C34.4648 31.5795 34.5474 31.6621 34.5474 31.7598L34.5475 32.8368Z" fill="#685749"/>
<path d="M63.0166 47.8761L56.5376 42.1743V40.0459C56.5376 39.5276 56.1169 39.1068 55.5984 39.1068C55.0799 39.1068 54.6592 39.5274 54.6592 40.0459V40.5213L49.1119 35.6394C48.1553 34.7979 46.7139 34.7979 45.7585 35.6394L31.8539 47.8761C30.3952 49.1591 30.8753 51.528 32.6753 52.17V56.5977H29.4821C28.9635 56.5977 28.5429 57.0181 28.5429 57.5369C28.5429 58.0556 28.9633 58.4761 29.4821 58.4761H32.6753V62.3067C32.6753 63.0956 33.4291 63.6904 34.4297 63.6904C37.7557 63.6904 57.2799 63.6904 60.4407 63.6904C61.4413 63.6904 62.1951 63.0956 62.1951 62.3067V52.1687C63.9863 51.5362 64.4834 49.166 63.0166 47.8761ZM60.3168 61.812H53.5565V55.7826C53.5565 54.1534 52.9182 52.6177 51.759 51.4583C50.5991 50.2997 49.0636 49.6616 47.4354 49.6616C46.8373 49.6616 46.2452 49.7488 45.6755 49.9207C45.179 50.0705 44.8979 50.5946 45.0477 51.0913C45.1976 51.588 45.7218 51.8686 46.2184 51.7191C46.6119 51.6002 47.0213 51.5401 47.4354 51.5401C48.5622 51.5401 49.6263 51.9831 50.4311 52.787C51.2353 53.5912 51.6782 54.6551 51.6782 55.7828V61.8122H43.1917V55.7828C43.1917 54.995 43.412 54.2246 43.8291 53.5549C44.1032 53.1145 43.9686 52.5354 43.5283 52.2613C43.088 51.9872 42.5089 52.1219 42.2347 52.5621C41.632 53.53 41.3134 54.6437 41.3134 55.7826V61.812H34.5538V52.1036C35.2071 51.8192 34.6778 52.0976 47.3164 41.0315C47.384 40.9714 47.4867 40.9714 47.5543 41.0315C60.1963 52.1012 59.6596 51.815 60.3168 52.1036V61.812ZM61.9972 49.7394C62.0352 50.3286 61.3424 50.6594 60.9028 50.2766L48.7952 39.6215C48.0124 38.9322 46.8409 38.9451 46.0754 39.6215L33.9665 50.2766C33.6935 50.517 33.2753 50.4907 33.0348 50.2165C32.7943 49.9435 32.8219 49.5266 33.0949 49.2862C33.0936 49.2873 33.0945 49.2864 33.0985 49.283C33.0986 49.2829 33.0988 49.2828 33.0989 49.2828C33.099 49.2827 33.0991 49.2827 33.0993 49.2825C33.0995 49.2823 33.0998 49.282 33.1 49.2819C33.1005 49.2814 33.1011 49.2809 33.1018 49.2804C33.102 49.2802 33.1025 49.2798 33.1026 49.2797C33.2072 49.1876 34.4996 48.0503 46.9996 37.0497C47.2475 36.8319 47.6232 36.8319 47.8712 37.0497C63.3083 50.6343 61.9769 49.3795 61.9972 49.7394Z" fill="#685749"/>
<path d="M49.9022 57.5371C50.4213 57.5371 50.8421 57.1163 50.8421 56.5972C50.8421 56.0781 50.4213 55.6572 49.9022 55.6572C49.383 55.6572 48.9622 56.0781 48.9622 56.5972C48.9622 57.1163 49.383 57.5371 49.9022 57.5371Z" fill="#685749"/>
<path d="M55.5984 16.9424C55.0801 16.9424 54.6592 17.3631 54.6592 17.8816V21.513C54.6592 22.0326 55.0799 22.4521 55.5984 22.4521C56.1169 22.4521 56.5376 22.0327 56.5376 21.513V17.8816C56.5376 17.3631 56.1168 16.9424 55.5984 16.9424Z" fill="#685749"/>
<path d="M55.5984 31.7188C55.0801 31.7188 54.6592 32.1394 54.6592 32.6579V36.2893C54.6592 36.8089 55.0799 37.2285 55.5984 37.2285C56.1169 37.2285 56.5376 36.8091 56.5376 36.2893V32.6579C56.5376 32.1394 56.1168 31.7188 55.5984 31.7188Z" fill="#685749"/>
<path d="M54.7745 6.50021C53.8666 5.39821 52.687 4.60062 51.3635 4.19241C50.8688 4.03833 50.3429 4.31642 50.1901 4.81221C50.036 5.30813 50.3141 5.83399 50.8099 5.98682C51.7816 6.28612 52.6506 6.87711 53.3255 7.69479C53.6562 8.09676 54.25 8.15066 54.6466 7.82254C55.0475 7.49193 55.1051 6.90094 54.7745 6.50021Z" fill="#685749"/>
<path d="M56.4613 10.3681C56.3899 9.85472 55.9166 9.49528 55.4019 9.56665C54.8885 9.63801 54.5291 10.1126 54.6005 10.626C54.6393 10.9052 54.6593 11.1908 54.6593 11.475V14.1246C54.6593 14.6442 55.08 15.0638 55.5985 15.0638C56.117 15.0638 56.5377 14.6444 56.5377 14.1246V11.4751C56.5376 11.1044 56.5113 10.7325 56.4613 10.3681Z" fill="#685749"/>
<path d="M55.5984 24.3306C55.0801 24.3306 54.6592 24.7513 54.6592 25.2698V28.9011C54.6592 29.4208 55.0799 29.8403 55.5984 29.8403C56.1169 29.8403 56.5376 29.4209 56.5376 28.9011V25.2698C56.5376 24.7514 56.1168 24.3306 55.5984 24.3306Z" fill="#685749"/>
<path d="M47.3576 3.88721H43.7262C43.2066 3.88721 42.787 4.3079 42.787 4.8264C42.787 5.3449 43.2064 5.76559 43.7262 5.76559H47.3576C47.8759 5.76559 48.2968 5.3449 48.2968 4.8264C48.2968 4.3079 47.8761 3.88721 47.3576 3.88721Z" fill="#685749"/>
<path d="M39.9696 3.88721H36.3382C35.8186 3.88721 35.399 4.3079 35.399 4.8264C35.399 5.3449 35.8184 5.76559 36.3382 5.76559H39.9696C40.4879 5.76559 40.9088 5.3449 40.9088 4.8264C40.9088 4.3079 40.4879 3.88721 39.9696 3.88721Z" fill="#685749"/>
<path d="M25.7254 56.5977H21.5931C21.0745 56.5977 20.6539 57.0181 20.6539 57.5368C20.6539 58.0556 21.0744 58.476 21.5931 58.476H25.7254C26.244 58.476 26.6646 58.0556 26.6646 57.5368C26.6646 57.0181 26.244 56.5977 25.7254 56.5977Z" fill="#685749"/>
<path d="M17.8364 56.5977H13.7041C13.1855 56.5977 12.765 57.0181 12.765 57.5368C12.765 58.0556 13.1854 58.476 13.7041 58.476H17.8364C18.3551 58.476 18.7756 58.0556 18.7756 57.5368C18.7756 57.0181 18.3552 56.5977 17.8364 56.5977Z" fill="#685749"/>
<path d="M10.6481 55.7543C9.65741 55.1166 8.89637 54.1565 8.50525 53.051C8.33234 52.5621 7.79562 52.3057 7.30669 52.4789C6.81775 52.6518 6.56162 53.1885 6.73466 53.6775C7.26402 55.1732 8.29266 56.4718 9.63146 57.3337C10.0692 57.6154 10.6497 57.487 10.9295 57.0525C11.2102 56.6163 11.0843 56.0352 10.6481 55.7543Z" fill="#685749"/>
<path d="M7.26286 44.5771C6.74423 44.5771 6.32367 44.9976 6.32367 45.5163V49.6486C6.32367 50.1673 6.74411 50.5878 7.26286 50.5878C7.78161 50.5878 8.20205 50.1674 8.20205 49.6486V45.5163C8.20205 44.9977 7.78149 44.5771 7.26286 44.5771Z" fill="#685749"/>
</svg>
