<svg width="58" height="58" viewBox="0 0 58 58" fill="none" xmlns="http://www.w3.org/2000/svg">
<path d="M16.3561 12.0688C19.6895 12.0688 22.3906 9.36766 22.3906 6.03437C22.3906 2.70108 19.6897 0 16.3561 0C13.0229 0 10.3218 2.70108 10.3218 6.03437C10.3218 9.36766 13.0227 12.0688 16.3561 12.0688Z" fill="#685749"/>
<path d="M23.586 42.2183C22.5808 42.0731 21.6693 41.5536 21.0254 40.7436C20.2595 39.7799 19.9796 38.5395 20.2573 37.3405L20.2934 37.1843C19.1416 37.3317 18.0242 37.0657 17.0972 36.4838C16.0023 35.7968 15.2406 34.7248 14.9521 33.4647C14.6637 32.2049 14.8833 30.9081 15.5703 29.8133L24.4782 15.6161C23.5834 14.3342 22.1976 13.6675 20.7713 13.6675H11.9415C10.1527 13.6675 8.58774 14.7176 7.82223 16.2684L0.315975 31.4747C-0.430249 32.9868 0.190411 34.8176 1.70238 35.564C3.2147 36.3104 5.04537 35.6894 5.79171 34.1777L8.24883 29.1998L9.04137 39.6365V54.2943C9.04137 55.9806 10.4084 57.3475 12.0947 57.3475C13.7809 57.3475 15.1479 55.9806 15.1479 54.2943V40.4744H17.5654V54.2943C17.5654 55.9806 18.9324 57.3475 20.6187 57.3475C22.1133 57.3475 23.3562 56.2732 23.6197 54.8549C23.5983 54.6708 23.5862 54.484 23.5862 54.2943V42.2183H23.586Z" fill="#685749"/>
<path d="M37.7971 45.7468C37.0396 45.5641 36.3606 45.1346 35.8633 44.5086C35.2669 43.7583 35.0043 42.8179 35.1196 41.8803C35.1096 41.8803 35.0993 41.8804 35.0894 41.8804C34.6828 41.8804 34.2813 41.8201 33.8958 41.7051V54.2949C33.8958 55.9812 35.2627 57.3481 36.9491 57.3481C37.4521 57.3481 37.9262 57.2256 38.3446 57.0102C37.997 56.3998 37.7973 55.6948 37.7973 54.9436V45.7468H37.7971Z" fill="#685749"/>
<path d="M31.5425 35.4626L39.0562 23.4877C39.4567 22.8496 40.0146 22.3432 40.6626 22.004C39.5984 20.861 38.9455 19.33 38.9455 17.6488C38.9455 17.1336 39.0085 16.6329 39.124 16.1526L38.7495 15.556C38.1925 14.6684 37.2539 14.1662 36.2802 14.1279C35.9812 14.0869 29.3705 14.0895 29.0929 14.128C28.1195 14.1662 27.1807 14.6684 26.6238 15.556L17.0826 30.7623C16.1864 32.1908 16.6177 34.0752 18.046 34.9715C19.4748 35.868 21.359 35.4358 22.255 34.008L23.2168 32.4753L21.9966 37.7436C21.8433 38.4054 22.0004 39.101 22.4231 39.6328C22.8459 40.1647 23.4882 40.4746 24.1676 40.4746H25.3715V54.2945C25.3715 55.9808 26.7385 57.3477 28.4249 57.3477C30.1112 57.3477 31.4781 55.9808 31.4781 54.2945V40.4745H31.9621C30.7566 39.1182 30.5305 37.0754 31.5425 35.4626Z" fill="#685749"/>
<path d="M57.632 36.4116L50.1176 24.4366C49.679 23.7377 48.9398 23.3421 48.1732 23.312C48.0574 23.2961 46.745 23.2886 45.4126 23.2886C44.0293 23.2886 42.6249 23.2967 42.5133 23.3121C41.7465 23.3422 41.0071 23.7378 40.5686 24.4368L33.0549 36.4118C32.3492 37.5366 32.6889 39.0207 33.8137 39.7264C34.9391 40.4327 36.423 40.0918 37.1282 38.9676L37.8856 37.7607L36.9247 41.9094C36.8041 42.4306 36.9278 42.9784 37.2607 43.3972C37.5935 43.8161 38.0995 44.0602 38.6346 44.0602H39.5826V54.9434C39.5826 56.2713 40.6591 57.3478 41.987 57.3478C43.3149 57.3478 44.3912 56.2713 44.3912 54.9434V44.0602H46.2951V54.9434C46.2951 56.2713 47.3718 57.3478 48.6996 57.3478C50.0275 57.3478 51.1038 56.2713 51.1038 54.9434V44.0602H52.0517C52.5866 44.0602 53.0925 43.8161 53.4253 43.3972C53.7582 42.9784 53.8819 42.4307 53.7612 41.9094L52.8006 37.76L53.5585 38.9678C54.2645 40.0932 55.7491 40.4321 56.8729 39.7264C57.998 39.0205 58.3378 37.5364 57.632 36.4116Z" fill="#685749"/>
<path d="M32.6869 12.7937C35.9147 12.7937 38.5438 10.1773 38.5438 6.93664C38.5438 3.70142 35.9223 1.07959 32.6869 1.07959C29.4514 1.07959 26.83 3.70131 26.83 6.93664C26.83 10.1779 29.4598 12.7937 32.6869 12.7937Z" fill="#685749"/>
<path d="M42.8308 21.5164C43.5538 21.987 44.4163 22.2615 45.3436 22.2615C46.271 22.2615 47.1336 21.9869 47.8566 21.5161C49.1199 20.6934 49.9558 19.2694 49.9558 17.649C49.9558 15.1012 47.8913 13.0366 45.3436 13.0366C42.7957 13.0366 40.7311 15.1013 40.7311 17.649C40.7311 19.2697 41.5671 20.6939 42.8308 21.5164Z" fill="#685749"/>
</svg>
