<svg width="87" height="60" viewBox="0 0 87 60" fill="none" xmlns="http://www.w3.org/2000/svg">
<path d="M68.1016 40.0991C68.1016 43.1242 68.1016 46.1519 68.1016 49.177C45.4019 49.3897 22.6997 69.2319 0 54.5692C0 42.3861 0 30.2055 0 18.0224C4.93178 21.2102 9.86607 22.7666 14.8029 23.2495C14.8029 25.6215 14.8029 27.9961 14.8029 30.3732C12.9813 34.0513 9.17797 36.556 4.50641 35.4401C4.50641 37.8471 4.50641 40.2542 4.50641 42.6613C10.2339 46.2394 14.7928 50.2779 16.1715 55.3924C28.237 56.0955 40.3 50.6883 52.363 47.2903C52.7783 45.5113 53.554 43.7523 54.5949 42.1234C59.0963 40.9548 63.5952 40.1441 68.1016 40.0991ZM86.8154 5.39397C86.8154 17.577 86.8154 29.7576 86.8154 41.9407C64.1157 27.283 41.4135 47.1202 18.7137 47.3329C18.7137 35.1498 18.7137 22.9642 18.7137 10.7861C41.4135 10.5735 64.1132 -9.26376 86.8154 5.39397ZM82.309 24.8884C82.309 22.4963 82.309 20.1042 82.309 17.7147C76.3713 14.0565 71.6697 9.89287 70.4086 4.55824C58.4107 3.9352 46.4078 9.30737 34.4099 12.6828C33.3114 18.085 28.9026 23.5522 23.2227 25.4439C23.2227 27.851 23.2227 30.2606 23.2227 32.6651C28.9501 32.9779 33.5066 35.4401 34.8878 40.0741C46.9483 36.6286 59.0162 31.2739 71.0817 32.1272C72.3253 27.273 76.7141 23.5197 82.309 24.8884ZM51.1819 31.7068C48.397 32.0396 46.9883 30.6509 46.9883 27.7509C46.9883 27.263 46.9883 26.775 46.9883 26.2921C48.2043 25.9043 49.4329 25.5239 50.649 25.1661C50.649 25.7241 50.649 26.2821 50.649 26.8401C50.649 28.3614 51.4271 28.6767 52.6632 28.3339C53.8893 27.9911 54.6675 27.2454 54.6675 25.7241C54.6675 21.2677 47.1009 23.2845 47.1009 17.2518C47.1009 14.3943 48.4746 12.1173 51.1869 10.8012C51.1869 10.4584 51.1869 10.1181 51.1869 9.77277C46.2477 12.0973 42.4769 18.1876 42.4769 23.9726C42.4769 29.7901 46.2552 33.3082 51.1869 32.7052C51.1819 32.3724 51.1819 32.0396 51.1819 31.7068ZM54.3497 8.89451C54.3497 9.23731 54.3497 9.5801 54.3497 9.9254C57.0996 9.69771 58.5083 11.2691 58.5083 14.1491C58.5083 14.3743 58.5083 14.5995 58.5083 14.8222C57.2872 15.0724 56.0637 15.3576 54.8426 15.6704C54.8426 15.3751 54.8426 15.0824 54.8426 14.7846C54.8426 13.2683 54.1395 12.8605 52.9084 13.2007C51.6799 13.546 50.9768 14.3342 50.9768 15.8556C50.9768 20.1493 58.5433 18.4128 58.5433 24.6107C58.5433 27.5082 57.0996 29.6275 54.3497 30.826C54.3497 31.1588 54.3497 31.4966 54.3497 31.8244C59.289 29.6475 63.0622 24.423 63.0622 18.623C63.0622 12.8254 59.2865 8.43411 54.3497 8.89451Z" fill="#685749"/>
</svg>
