<svg width="60" height="60" viewBox="0 0 60 60" fill="none" xmlns="http://www.w3.org/2000/svg">
<path d="M24.7254 15.0572H12.2814C9.64488 15.0572 7.5 17.2021 7.5 19.8385V40.1616C7.5 42.2327 5.82105 43.9116 3.75 43.9116C1.67895 43.9116 0 42.2327 0 40.1616V19.8385C0 13.0665 5.50945 7.55718 12.2814 7.55718H24.7253L23.5698 6.4017C22.1053 4.93721 22.1053 2.56287 23.5697 1.09837C25.0343 -0.366124 27.4086 -0.366124 28.873 1.09837L36.4302 8.65558C37.1336 9.35882 37.5286 10.3127 37.5286 11.3072C37.5286 12.3016 37.1336 13.2555 36.4302 13.9588L28.8731 21.516C28.1408 22.2483 27.1812 22.6144 26.2214 22.6144C25.2616 22.6144 24.302 22.2483 23.5698 21.516C22.1053 20.0515 22.1053 17.6772 23.5698 16.2127L24.7254 15.0572ZM56.25 16.0884C54.1789 16.0884 52.5 17.7674 52.5 19.8385V40.1616C52.5 42.7981 50.3551 44.9429 47.7186 44.9429H35.2746L36.4302 43.7873C37.8947 42.3228 37.8947 39.9485 36.4302 38.484C34.9658 37.0195 32.5915 37.0195 31.1269 38.484L23.5698 46.0412C22.8664 46.7444 22.4714 47.6983 22.4714 48.6928C22.4714 49.6872 22.8664 50.6411 23.5698 51.3444L31.127 58.9016C31.8592 59.6339 32.8189 60 33.7786 60C34.7382 60 35.698 59.6339 36.4303 58.9016C37.8947 57.4371 37.8947 55.0628 36.4302 53.5983L35.2747 52.4428H47.7186C54.4905 52.4428 60 46.9334 60 40.1615V19.8385C60 17.7674 58.3211 16.0884 56.25 16.0884Z" fill="#685749"/>
</svg>
