<svg width="53" height="53" viewBox="0 0 53 53" fill="none" xmlns="http://www.w3.org/2000/svg">
<path d="M6.91304 46.087V39.3137L24.9156 21.3111L31.5326 27.9279L49.5353 9.92506V14.394H52.9918V4.02282L42.6205 4.03261L42.6239 7.48913L47.0872 7.48487L31.5326 23.0396L24.9156 16.4229L6.91304 34.4255V0H0V3.45652H3.45652V9.21739H0V12.6739H3.45652V18.4348H0V21.8913H3.45652V27.6522H0V31.1087H3.45652V36.8696H0V40.3261H3.45652V46.087H0V49.5435H3.45652V53H6.91304V49.5435H12.6739V53H16.1304V49.5435H21.8913V53H25.3478V49.5435H31.1087V53H34.5652V49.5435H40.3261V53H43.7826V49.5435H49.5435V53H53V46.087H6.91304Z" fill="#685749"/>
</svg>
